<svg width="60" height="60" viewBox="0 0 60 60" fill="none" xmlns="http://www.w3.org/2000/svg">
<rect width="60" height="60" rx="30" fill="#47E185"/>
<path d="M33.3596 22.9136C34.0885 23.1042 34.7913 23.3546 35.4608 23.6641C36.726 22.7018 38.5364 22.7971 39.6921 23.9524C40.6808 24.9411 40.8929 26.4087 40.333 27.6046C40.945 28.4219 41.4622 29.3178 41.8649 30.2706H41.8743C43.6562 30.2706 45.1002 31.7146 45.1002 33.4965C45.1002 34.9592 44.1306 36.1959 42.7942 36.5889C42.7083 37.3797 42.5437 38.1566 42.3055 38.945C42.1887 39.3335 41.8291 39.5859 41.4406 39.5859L18.8552 39.5908C18.417 39.5908 18.0501 39.2785 17.9667 38.8664C17.7284 38.0613 17.5713 37.2799 17.4902 36.4744C16.3276 35.9886 15.5104 34.8379 15.5104 33.4965C15.5104 31.8192 16.7923 30.4421 18.4264 30.2849C18.8316 29.3271 19.3483 28.4292 19.9656 27.6071C19.4033 26.4111 19.6154 24.9411 20.6042 23.9524C21.7594 22.7971 23.5727 22.7043 24.8375 23.6665C25.5069 23.3595 26.2098 23.1042 26.9367 22.9136C27.0938 21.2795 28.471 20 30.1479 20C31.8252 20 33.2024 21.277 33.3596 22.9136ZM39.0963 28.9867C37.8527 29.749 36.2068 29.5918 35.1297 28.5147C34.222 27.6071 33.9696 26.2991 34.3674 25.165C33.9337 24.9818 33.4809 24.8266 33.0187 24.7004C32.4828 25.7416 31.3988 26.4518 30.1479 26.4518C28.8974 26.4518 27.8134 25.7392 27.2771 24.7004C26.8149 24.8266 26.367 24.9842 25.9313 25.165C26.3291 26.2967 26.0717 27.6095 25.1665 28.5147C24.0895 29.5918 22.4455 29.749 21.2019 28.9867C20.8375 29.5083 20.5182 30.0658 20.2491 30.6473C21.2687 31.1881 21.9622 32.2623 21.9622 33.4965C21.9622 35.0712 20.8326 36.384 19.3414 36.665C19.3915 37.0368 19.4603 37.4061 19.5462 37.7755H40.75C40.8428 37.3846 40.9141 36.9892 40.9642 36.5913C39.6253 36.2004 38.6484 34.9617 38.6484 33.4965C38.6484 32.3625 39.2323 31.3664 40.116 30.7923C39.8326 30.1562 39.4897 29.5511 39.0963 28.9867Z" fill="white"/>
</svg>
