<svg width="60" height="60" viewBox="0 0 60 60" fill="none" xmlns="http://www.w3.org/2000/svg">
<rect width="60" height="60" rx="30" fill="#FBBC04"/>
<path d="M32.3266 42.7183C32.051 43.7579 31.0103 44 30 44C28.9898 44 27.949 43.7579 27.6735 42.7183C27.2639 41.1636 26.5714 37.2679 26.5714 35.4551C26.5714 33.5325 28.2397 33.0625 30 33.0625C31.7603 33.0625 33.4286 33.5325 33.4286 35.4551C33.4286 37.257 32.7391 41.1524 32.3266 42.7183ZM26.4036 31.7803C25.4022 30.7791 24.7987 29.3646 24.8616 27.81C24.9716 25.0908 27.1328 22.8906 29.7968 22.7853C32.7248 22.6696 35.1429 25.0676 35.1429 28.0312C35.1429 29.4984 34.5501 30.8267 33.5965 31.7802C33.4532 31.9235 33.4678 32.1622 33.6301 32.2826C34.129 32.6526 34.5119 33.1217 34.7676 33.6696C34.8609 33.8695 35.1157 33.9245 35.2738 33.7731C36.8181 32.2941 37.7677 30.1755 37.7119 27.8359C37.6126 23.6684 34.3051 20.2777 30.223 20.1595C25.868 20.0334 22.2857 23.6133 22.2857 28.0312C22.2857 30.2932 23.2249 32.3352 24.7259 33.7728C24.8841 33.9244 25.139 33.8696 25.2323 33.6696C25.4881 33.1216 25.871 32.6526 26.3699 32.2826C26.5322 32.1623 26.5469 31.9235 26.4036 31.7803ZM30 16C23.3681 16 18 21.4789 18 28.25C18 33.1714 20.818 37.3088 24.736 39.2645C24.9681 39.3803 25.2325 39.1801 25.1933 38.9194C25.0656 38.0711 24.9606 37.2271 24.9036 36.4946C24.8958 36.3942 24.8421 36.304 24.7602 36.2479C22.2209 34.5085 20.5514 31.5439 20.5716 28.1898C20.6033 22.9269 24.8193 18.6388 29.9749 18.6251C35.1853 18.6112 39.4286 22.9342 39.4286 28.25C39.4286 31.6369 37.7058 34.6205 35.108 36.3365C35.0545 37.1041 34.9436 38.0093 34.8068 38.9194C34.7675 39.1801 35.0319 39.3803 35.264 39.2644C39.1729 37.3132 42 33.1821 42 28.25C42 21.48 36.6329 16 30 16ZM30 24.75C28.1065 24.75 26.5714 26.317 26.5714 28.25C26.5714 30.183 28.1065 31.75 30 31.75C31.8935 31.75 33.4286 30.183 33.4286 28.25C33.4286 26.317 31.8935 24.75 30 24.75Z" fill="white"/>
</svg>
