<svg width="60" height="60" viewBox="0 0 60 60" fill="none" xmlns="http://www.w3.org/2000/svg">
<rect width="60" height="60" rx="30" fill="#D75437"/>
<path d="M37.2183 32.4226C36.9167 32.4226 36.6181 32.3449 36.3549 32.1993C35.9373 31.9687 35.6356 31.5889 35.5044 31.1302C35.3725 30.6715 35.428 30.1895 35.6582 29.7718C36.1125 28.9491 35.8146 27.9094 34.9933 27.4543C34.4755 27.1669 33.813 27.176 33.3031 27.4776C33.1603 27.562 33.1108 27.7455 33.1914 27.8904C33.6347 28.6861 33.3856 29.7002 32.6254 30.1999C32.5112 30.2745 32.353 30.2598 32.2553 30.1632L23.8558 21.8757C23.6867 21.7087 23.6073 21.4683 23.6439 21.2323L23.7734 20.3986C23.7942 20.2653 23.7252 20.1338 23.6043 20.0763L19.4998 18.0983C18.9936 17.853 18.3457 18.0854 18.1033 18.5882C17.9684 18.8702 17.9653 19.1949 18.096 19.4799L19.879 23.3693C19.9284 23.4769 20.0359 23.5466 20.1537 23.5473L20.8919 23.5528C21.0855 23.554 21.2687 23.6298 21.4073 23.7662L30.8003 33.0317L31.0152 32.8146L30.7966 33.0941C30.7404 33.1302 30.6824 33.1608 30.622 33.1883C30.0394 33.4391 29.3317 33.1522 29.0826 32.5742C29.0405 32.4764 28.9483 32.4073 28.8414 32.3926C28.7346 32.3773 28.6277 32.4213 28.5618 32.5076C27.9316 33.3125 28.0727 34.4825 28.8775 35.1143C29.2914 35.4391 29.8373 35.573 30.3576 35.4789C30.4638 35.4599 30.5719 35.4489 30.6787 35.4489C31.6496 35.4489 32.4391 36.2397 32.4391 37.2122C32.4391 39.852 34.5836 42 37.219 42C39.8556 42 42 39.852 42 37.2122C42 34.5724 39.8555 32.4226 37.2183 32.4226ZM37.8277 35.9296C37.948 36.0489 37.9492 36.2428 37.832 36.362L36.38 37.8385C36.3201 37.8997 36.2408 37.9302 36.1632 37.9302C36.0857 37.9302 36.0087 37.9003 35.9489 37.8416C35.8286 37.7223 35.8274 37.5284 35.9446 37.4091L37.396 35.9327C37.5157 35.8116 37.708 35.8116 37.8277 35.9296ZM36.6499 35.1951L35.1985 36.6715C35.1386 36.7339 35.0592 36.7633 34.9817 36.7633C34.9041 36.7633 34.8266 36.7333 34.7668 36.6746C34.6465 36.5565 34.6452 36.3614 34.7631 36.2422L36.2145 34.7657C36.333 34.6452 36.5271 34.644 36.6462 34.762C36.7665 34.8819 36.7677 35.0758 36.6499 35.1951ZM35.4671 34.0293L34.0157 35.5045C33.9553 35.5669 33.8765 35.5963 33.7983 35.5963C33.7208 35.5963 33.6432 35.5663 33.584 35.5076C33.4637 35.3896 33.4625 35.1944 33.5797 35.0752L35.0312 33.5999C35.1502 33.4782 35.345 33.4782 35.4628 33.5963C35.5844 33.7161 35.5856 33.91 35.4671 34.0293ZM34.285 32.8635L32.8336 34.3388C32.7737 34.3999 32.6944 34.4293 32.6168 34.4293C32.5393 34.4293 32.4617 34.4006 32.4019 34.3418C32.2816 34.2226 32.2804 34.0287 32.3982 33.9094L33.8496 32.433C33.9681 32.3125 34.1635 32.3112 34.2813 32.4293C34.4016 32.5492 34.4028 32.7424 34.285 32.8635Z" fill="white"/>
</svg>
